<svg width="128" height="128" viewBox="0 0 128 128" fill="none" xmlns="http://www.w3.org/2000/svg">
<g clip-path="url(#clip0_217_111)">
<path d="M128 64C128 65.4145 127.438 66.771 126.438 67.7712C125.438 68.7714 124.081 69.3333 122.667 69.3333C121.252 69.3333 119.896 68.7714 118.895 67.7712C117.895 66.771 117.333 65.4145 117.333 64C117.318 49.8599 111.694 36.3034 101.695 26.3048C91.6966 16.3062 78.1401 10.6822 64 10.6667C62.5855 10.6667 61.229 10.1048 60.2288 9.10457C59.2286 8.10438 58.6667 6.74782 58.6667 5.33333C58.6667 3.91885 59.2286 2.56229 60.2288 1.5621C61.229 0.561903 62.5855 0 64 0C80.9682 0.0183524 97.2362 6.76708 109.235 18.7654C121.233 30.7638 127.982 47.0318 128 64ZM85.3333 69.3333C86.7478 69.3333 88.1044 68.7714 89.1046 67.7712C90.1048 66.771 90.6667 65.4145 90.6667 64C90.6667 62.5855 90.1048 61.229 89.1046 60.2288C88.1044 59.2286 86.7478 58.6667 85.3333 58.6667H73.1893C72.2598 57.0689 70.9311 55.7402 69.3333 54.8107V37.3333C69.3333 35.9188 68.7714 34.5623 67.7712 33.5621C66.771 32.5619 65.4145 32 64 32C62.5855 32 61.229 32.5619 60.2288 33.5621C59.2286 34.5623 58.6667 35.9188 58.6667 37.3333V54.8107C57.2521 55.6252 56.044 56.7543 55.136 58.1107C54.228 59.4671 53.6444 61.0143 53.4304 62.6325C53.2164 64.2507 53.3777 65.8964 53.902 67.4422C54.4262 68.988 55.2992 70.3924 56.4534 71.5466C57.6076 72.7008 59.012 73.5738 60.5578 74.0981C62.1036 74.6223 63.7493 74.7836 65.3675 74.5696C66.9857 74.3556 68.5329 73.772 69.8893 72.864C71.2457 71.956 72.3748 70.7479 73.1893 69.3333H85.3333ZM9.744 36.1813C8.68917 36.1813 7.65802 36.4941 6.78096 37.0802C5.9039 37.6662 5.22031 38.4991 4.81665 39.4737C4.41298 40.4482 4.30736 41.5206 4.51315 42.5551C4.71894 43.5897 5.22689 44.54 5.97277 45.2859C6.71865 46.0318 7.66896 46.5397 8.70352 46.7455C9.73809 46.9513 10.8104 46.8457 11.785 46.442C12.7595 46.0384 13.5925 45.3548 14.1785 44.4777C14.7645 43.6006 15.0773 42.5695 15.0773 41.5147C15.0773 40.1002 14.5154 38.7436 13.5152 37.7434C12.515 36.7432 11.1585 36.1813 9.744 36.1813ZM10.6667 64C10.6667 62.9452 10.3539 61.914 9.76784 61.037C9.18181 60.1599 8.34885 59.4763 7.37431 59.0726C6.39978 58.669 5.32742 58.5634 4.29285 58.7691C3.25829 58.9749 2.30798 59.4829 1.5621 60.2288C0.81622 60.9746 0.308269 61.925 0.102481 62.9595C-0.103307 63.9941 0.00231083 65.0664 0.405978 66.041C0.809646 67.0155 1.49323 67.8485 2.37029 68.4345C3.24736 69.0205 4.2785 69.3333 5.33334 69.3333C6.74782 69.3333 8.10438 68.7714 9.10457 67.7712C10.1048 66.771 10.6667 65.4145 10.6667 64ZM64 117.333C62.9452 117.333 61.914 117.646 61.037 118.232C60.1599 118.818 59.4763 119.651 59.0726 120.626C58.669 121.6 58.5634 122.673 58.7691 123.707C58.9749 124.742 59.4829 125.692 60.2288 126.438C60.9746 127.184 61.925 127.692 62.9595 127.898C63.9941 128.103 65.0664 127.998 66.041 127.594C67.0155 127.19 67.8485 126.507 68.4345 125.63C69.0205 124.753 69.3333 123.722 69.3333 122.667C69.3333 121.252 68.7714 119.896 67.7712 118.895C66.771 117.895 65.4145 117.333 64 117.333ZM22.512 17.104C21.4572 17.104 20.426 17.4168 19.549 18.0028C18.6719 18.5889 17.9883 19.4218 17.5846 20.3964C17.181 21.3709 17.0754 22.4433 17.2811 23.4778C17.4869 24.5124 17.9949 25.4627 18.7408 26.2086C19.4866 26.9545 20.437 27.4624 21.4715 27.6682C22.5061 27.874 23.5784 27.7684 24.553 27.3647C25.5275 26.961 26.3605 26.2774 26.9465 25.4004C27.5325 24.5233 27.8453 23.4922 27.8453 22.4373C27.8453 21.0228 27.2834 19.6663 26.2832 18.6661C25.283 17.6659 23.9265 17.104 22.512 17.104ZM41.488 4.48533C40.4332 4.48533 39.402 4.79813 38.525 5.38416C37.6479 5.9702 36.9643 6.80315 36.5606 7.77769C36.157 8.75223 36.0514 9.82458 36.2571 10.8591C36.4629 11.8937 36.9709 12.844 37.7168 13.5899C38.4626 14.3358 39.413 14.8437 40.4475 15.0495C41.4821 15.2553 42.5544 15.1497 43.529 14.746C44.5035 14.3424 45.3365 13.6588 45.9225 12.7817C46.5085 11.9046 46.8213 10.8735 46.8213 9.81867C46.8213 8.40418 46.2594 7.04763 45.2592 6.04743C44.259 5.04724 42.9025 4.48533 41.488 4.48533ZM9.744 81.152C8.68917 81.152 7.65802 81.4648 6.78096 82.0508C5.9039 82.6369 5.22031 83.4698 4.81665 84.4444C4.41298 85.4189 4.30736 86.4913 4.51315 87.5258C4.71894 88.5604 5.22689 89.5107 5.97277 90.2566C6.71865 91.0025 7.66896 91.5104 8.70352 91.7162C9.73809 91.922 10.8104 91.8164 11.785 91.4127C12.7595 91.009 13.5925 90.3254 14.1785 89.4484C14.7645 88.5713 15.0773 87.5402 15.0773 86.4853C15.0773 85.0708 14.5154 83.7143 13.5152 82.7141C12.515 81.7139 11.1585 81.152 9.744 81.152ZM22.512 100.229C21.4572 100.229 20.426 100.542 19.549 101.128C18.6719 101.714 17.9883 102.547 17.5846 103.522C17.181 104.496 17.0754 105.569 17.2811 106.603C17.4869 107.638 17.9949 108.588 18.7408 109.334C19.4866 110.08 20.437 110.588 21.4715 110.794C22.5061 110.999 23.5784 110.894 24.553 110.49C25.5275 110.086 26.3605 109.403 26.9465 108.526C27.5325 107.649 27.8453 106.618 27.8453 105.563C27.8453 104.148 27.2834 102.792 26.2832 101.791C25.283 100.791 23.9265 100.229 22.512 100.229ZM41.488 112.848C40.4332 112.848 39.402 113.161 38.525 113.747C37.6479 114.333 36.9643 115.166 36.5606 116.14C36.157 117.115 36.0514 118.187 36.2571 119.222C36.4629 120.256 36.9709 121.207 37.7168 121.953C38.4626 122.698 39.413 123.206 40.4475 123.412C41.4821 123.618 42.5544 123.512 43.529 123.109C44.5035 122.705 45.3365 122.021 45.9225 121.144C46.5085 120.267 46.8213 119.236 46.8213 118.181C46.8213 116.767 46.2594 115.41 45.2592 114.41C44.259 113.41 42.9025 112.848 41.488 112.848ZM118.256 81.152C117.201 81.152 116.17 81.4648 115.293 82.0508C114.416 82.6369 113.732 83.4698 113.329 84.4444C112.925 85.4189 112.819 86.4913 113.025 87.5258C113.231 88.5604 113.739 89.5107 114.485 90.2566C115.231 91.0025 116.181 91.5104 117.216 91.7162C118.25 91.922 119.322 91.8164 120.297 91.4127C121.272 91.009 122.104 90.3254 122.691 89.4484C123.277 88.5713 123.589 87.5402 123.589 86.4853C123.589 85.785 123.451 85.0914 123.183 84.4444C122.915 83.7973 122.522 83.2093 122.027 82.7141C121.532 82.2188 120.944 81.826 120.297 81.558C119.65 81.29 118.956 81.152 118.256 81.152ZM105.488 100.229C104.433 100.229 103.402 100.542 102.525 101.128C101.648 101.714 100.964 102.547 100.561 103.522C100.157 104.496 100.051 105.569 100.257 106.603C100.463 107.638 100.971 108.588 101.717 109.334C102.463 110.08 103.413 110.588 104.448 110.794C105.482 110.999 106.554 110.894 107.529 110.49C108.504 110.086 109.336 109.403 109.923 108.526C110.509 107.649 110.821 106.618 110.821 105.563C110.821 104.862 110.683 104.169 110.415 103.522C110.147 102.875 109.754 102.287 109.259 101.791C108.764 101.296 108.176 100.903 107.529 100.635C106.882 100.367 106.188 100.229 105.488 100.229ZM86.512 112.848C85.4572 112.848 84.426 113.161 83.549 113.747C82.6719 114.333 81.9883 115.166 81.5846 116.14C81.181 117.115 81.0754 118.187 81.2811 119.222C81.4869 120.256 81.9949 121.207 82.7408 121.953C83.4866 122.698 84.437 123.206 85.4715 123.412C86.5061 123.618 87.5784 123.512 88.553 123.109C89.5275 122.705 90.3605 122.021 90.9465 121.144C91.5325 120.267 91.8453 119.236 91.8453 118.181C91.8453 117.481 91.7074 116.787 91.4394 116.14C91.1713 115.493 90.7785 114.905 90.2832 114.41C89.788 113.915 89.2001 113.522 88.553 113.254C87.9059 112.986 87.2124 112.848 86.512 112.848Z" fill="#085793"/>
</g>
<defs>
<clipPath id="clip0_217_111">
<rect width="128" height="128" fill="white"/>
</clipPath>
</defs>
</svg>
